<svg width="111" height="15" viewBox="0 0 111 15" fill="none" xmlns="http://www.w3.org/2000/svg">
    <path d="M110.707 8.07088C111.098 7.68035 111.098 7.04719 110.707 6.65666L104.343 0.292702C103.953 -0.0978227 103.319 -0.0978227 102.929 0.292702C102.538 0.683226 102.538 1.31639 102.929 1.70692L108.586 7.36377L102.929 13.0206C102.538 13.4111 102.538 14.0443 102.929 14.4348C103.319 14.8254 103.953 14.8254 104.343 14.4348L110.707 8.07088ZM0.292893 6.65666C-0.0976311 7.04719 -0.0976311 7.68035 0.292893 8.07088L6.65685 14.4348C7.04738 14.8254 7.68054 14.8254 8.07107 14.4348C8.46159 14.0443 8.46159 13.4111 8.07107 13.0206L2.41421 7.36377L8.07107 1.70692C8.46159 1.31639 8.46159 0.683226 8.07107 0.292702C7.68054 -0.0978227 7.04738 -0.0978227 6.65685 0.292702L0.292893 6.65666ZM68 7.36377V8.36377H110V7.36377V6.36377H68V7.36377ZM43 7.36377V6.36377H1V7.36377V8.36377H43V7.36377Z"
          fill="black"/>
</svg>
