<svg width="140" height="122" viewBox="0 0 140 122" fill="none" xmlns="http://www.w3.org/2000/svg">
<g clip-path="url(#clip0_5_77)">
<path d="M0.0199367 108.189C0.0320754 108.241 0.0487922 108.291 0.0699098 108.339C0.0753518 108.37 0.0854601 108.401 0.0998997 108.429L7.37775 121.047L7.40774 121.077C7.42788 121.109 7.45134 121.139 7.47773 121.167C7.51772 121.207 7.5577 121.237 7.59769 121.277C7.62768 121.297 7.63769 121.327 7.66768 121.337C7.67941 121.345 7.69355 121.348 7.70764 121.347C7.81619 121.402 7.9357 121.433 8.05755 121.437H131.891C132.013 121.433 132.132 121.402 132.241 121.347C132.271 121.327 132.291 121.307 132.321 121.287C132.402 121.236 132.47 121.167 132.521 121.087C132.531 121.067 132.551 121.057 132.571 121.037L139.859 108.419C139.869 108.409 139.869 108.389 139.879 108.379C139.898 108.349 139.911 108.315 139.919 108.279C139.929 108.249 139.939 108.209 139.949 108.179C139.957 108.147 139.96 108.113 139.959 108.079C139.959 108.059 139.969 108.049 139.969 108.029C139.969 108.009 139.959 107.999 139.959 107.979C139.959 107.959 139.949 107.909 139.949 107.879C139.949 107.849 139.929 107.809 139.919 107.779C139.908 107.745 139.895 107.712 139.879 107.679C139.869 107.669 139.869 107.649 139.859 107.639L77.947 0.390654C77.9295 0.365266 77.9094 0.341806 77.887 0.320668C77.8557 0.276074 77.8187 0.235744 77.777 0.200692C77.6986 0.142965 77.6149 0.0927528 77.5271 0.0507217C77.475 0.0350103 77.4214 0.0249546 77.3671 0.0207279C77.3372 0.0207279 77.3072 0.000732422 77.2672 0.000732422H62.7015C62.6815 0.000732422 62.6715 0.0107297 62.6515 0.0107297C62.6315 0.0107297 62.5815 0.0207279 62.5515 0.0207279L62.4415 0.0507217C62.4072 0.061427 62.3738 0.0747984 62.3416 0.0907137C62.3298 0.0986659 62.3157 0.102208 62.3016 0.100712C62.2902 0.113062 62.2766 0.123226 62.2616 0.130706C62.2332 0.14825 62.2064 0.168328 62.1816 0.190694C62.1525 0.214777 62.1257 0.241557 62.1016 0.270678C62.0816 0.300672 62.0616 0.320668 62.0416 0.350662C62.0293 0.362055 62.0191 0.375608 62.0117 0.390654L0.0898929 107.649C0.0754533 107.678 0.065345 107.708 0.0599029 107.739C0.0387702 107.788 0.022053 107.838 0.00992988 107.889C0.0016236 107.939 -0.00173507 107.989 -7.6939e-05 108.039C0.00992012 108.089 0.00993964 108.139 0.0199367 108.189ZM76.8173 1.57042L137.829 107.249H31.2807L37.6588 96.2116H117.345C117.469 96.2106 117.59 96.176 117.695 96.1116C117.705 96.1016 117.725 96.1116 117.735 96.1016C117.761 96.0841 117.784 96.064 117.805 96.0416C117.848 96.0077 117.888 95.971 117.925 95.9316C117.955 95.894 117.982 95.8539 118.005 95.8117C118.035 95.7736 118.056 95.7291 118.065 95.6817C118.086 95.6309 118.096 95.5765 118.095 95.5217C118.095 95.4917 118.115 95.4617 118.115 95.4217C118.115 95.4017 118.105 95.3917 118.105 95.3717C118.1 95.3209 118.09 95.2707 118.075 95.2218C118.063 95.1704 118.046 95.1202 118.025 95.0718C118.015 95.0618 118.015 95.0418 118.005 95.0318L64.0511 1.57042H76.8173ZM131.451 119.867H9.42714L62.7015 27.5852L69.0796 38.623L29.2313 107.639C29.2233 107.651 29.2198 107.665 29.2213 107.679C29.2002 107.728 29.1834 107.778 29.1713 107.829C29.1566 107.878 29.1465 107.928 29.1413 107.979C29.1413 107.999 29.1314 108.009 29.1314 108.029C29.1314 108.049 29.1513 108.089 29.1513 108.129C29.1565 108.183 29.1665 108.237 29.1813 108.289C29.2013 108.339 29.2213 108.379 29.2413 108.419C29.2656 108.461 29.2924 108.501 29.3213 108.539C29.3613 108.579 29.4013 108.609 29.4413 108.649C29.4713 108.669 29.4813 108.699 29.5112 108.709C29.5212 108.719 29.5412 108.709 29.5512 108.719C29.6591 108.778 29.7785 108.812 29.9011 108.819H137.809L131.451 119.867ZM101.41 94.6419H38.5586L69.9893 40.2027L101.41 94.6419ZM62.7015 2.36026L115.976 94.6419H103.23L63.3913 25.6256C63.3789 25.6142 63.3687 25.6007 63.3613 25.5856C63.3313 25.5456 63.2913 25.5057 63.2613 25.4657C63.226 25.4271 63.1856 25.3935 63.1413 25.3657C63.1299 25.3533 63.1164 25.3432 63.1013 25.3357C63.073 25.3212 63.0427 25.3111 63.0114 25.3057C62.963 25.2846 62.9128 25.2678 62.8614 25.2557C62.7619 25.2424 62.661 25.2424 62.5615 25.2557C62.5101 25.2678 62.4599 25.2846 62.4115 25.3057C62.3802 25.3111 62.3499 25.3212 62.3216 25.3357C62.3102 25.348 62.2966 25.3582 62.2816 25.3657C62.2416 25.3957 62.2016 25.4357 62.1616 25.4657C62.1203 25.4983 62.0863 25.5391 62.0617 25.5856C62.0493 25.597 62.0391 25.6106 62.0317 25.6256L8.07756 119.087L1.69943 108.049L62.7015 2.36026Z" fill="white"/>
</g>
<defs>
<clipPath id="clip0_5_77">
<rect width="139.969" height="121.438" fill="white"/>
</clipPath>
</defs>
</svg>
