<svg width="139" height="142" viewBox="0 0 139 142" fill="none" xmlns="http://www.w3.org/2000/svg">
<path fill-rule="evenodd" clip-rule="evenodd" d="M137.733 49.8211C133.137 35.3036 123.935 22.6795 111.521 13.8611C99.1064 5.04265 84.1563 0.510423 68.9351 0.950961C53.714 1.3915 39.0509 6.78079 27.1675 16.3024C15.284 25.8241 6.82758 38.9593 3.07908 53.7183C-0.669429 68.4773 0.49429 84.0558 6.39397 98.0941C12.2937 112.132 22.6079 123.865 35.7741 131.516C48.9403 139.166 64.2412 142.317 79.3589 140.491C94.4766 138.666 108.587 131.962 119.554 121.397H119.584L120.154 120.828C122.904 118.065 124.447 114.323 124.442 110.425C124.438 106.526 122.887 102.789 120.13 100.032C117.374 97.2751 113.636 95.7244 109.737 95.7201C105.839 95.7157 102.098 97.258 99.3347 100.009V99.9985C93.6994 105.514 86.5785 109.267 78.8434 110.798C71.1084 112.329 63.0949 111.572 55.7835 108.619C48.472 105.667 42.1799 100.647 37.6772 94.1734C33.1745 87.7004 30.6565 80.055 30.4315 72.1731C30.2064 64.2912 32.284 56.5147 36.41 49.7952C40.536 43.0758 46.5315 37.7049 53.6626 34.3399C60.7936 30.9749 68.7509 29.7618 76.5607 30.8491C84.3705 31.9363 91.6941 35.2768 97.6349 40.4615L99.6047 42.4414C100.525 43.3744 101.04 44.6337 101.035 45.9444C101.031 47.2551 100.508 48.5109 99.5814 49.4378C98.6546 50.3646 97.3988 50.8872 96.0881 50.8916C94.7773 50.896 93.5181 50.3817 92.5851 49.4611L89.8552 46.7212L89.7553 46.8212C89.7119 46.6993 89.6398 46.5896 89.5452 46.5012C84.9101 42.9912 79.3746 40.8676 73.5811 40.3769C67.7877 39.8863 61.9739 41.0487 56.8145 43.7293C51.6551 46.4099 47.3617 50.4987 44.4326 55.5211C41.5035 60.5436 40.0588 66.2937 40.2662 72.1042C40.4736 77.9147 42.3246 83.5473 45.6043 88.3481C48.884 93.149 53.4579 96.9213 58.7953 99.2272C64.1326 101.533 70.0145 102.278 75.7583 101.376C81.502 100.473 86.8721 97.9604 91.2452 94.1288C92.0685 93.209 92.5203 92.0158 92.5129 90.7813C92.5055 89.5468 92.0394 88.3591 91.2051 87.4492C89.2352 85.3193 85.8654 85.8793 84.1955 87.2492C81.1508 89.7254 77.471 91.2951 73.5765 91.7792C69.682 92.2632 65.7299 91.6419 62.1717 89.9863C58.6135 88.3307 55.5928 85.7076 53.4547 82.4167C51.3166 79.1258 50.1474 75.2998 50.0806 71.3759C50.0138 67.452 51.0522 63.5885 53.077 60.2267C55.1019 56.8649 58.0316 54.1405 61.5313 52.3648C65.0311 50.5891 68.9598 49.8337 72.8685 50.1849C76.7773 50.5361 80.5084 51.9797 83.6356 54.3508L83.6655 54.3308L85.4354 56.1008C88.1983 58.8513 91.9395 60.3936 95.8381 60.3893C99.7367 60.3849 103.474 58.8342 106.231 56.0775C108.988 53.3208 110.539 49.5831 110.543 45.6845C110.547 41.7858 109.005 38.0447 106.254 35.2818L106.034 35.0618C106 34.9045 105.924 34.7593 105.814 34.6418C98.6514 27.7874 89.6249 23.1994 79.8657 21.4527C70.1066 19.7061 60.049 20.8784 50.9533 24.823C41.8575 28.7675 34.1281 35.3086 28.7338 43.6269C23.3394 51.9451 20.5201 61.6703 20.6289 71.5839C20.7376 81.4975 23.7697 91.1585 29.3452 99.3564C34.9207 107.554 42.7918 113.924 51.9719 117.668C61.152 121.412 71.2328 122.364 80.9513 120.403C90.6697 118.443 99.5935 113.658 106.604 106.648C106.619 106.614 106.636 106.581 106.654 106.548C107.557 105.704 108.743 105.228 109.979 105.214C111.215 105.201 112.411 105.65 113.332 106.473C114.254 107.297 114.834 108.436 114.958 109.665C115.082 110.895 114.742 112.127 114.004 113.118C104.873 122.445 92.9556 128.549 80.0509 130.509C67.1462 132.469 53.9541 130.179 42.465 123.985C30.976 117.79 21.8134 108.026 16.3599 96.1673C10.9064 84.3084 9.45776 70.9976 12.2327 58.2432C15.0076 45.4888 21.8554 33.983 31.7429 25.4618C41.6304 16.9406 54.0212 11.8663 67.0455 11.0047C80.0697 10.1431 93.0209 13.5409 103.945 20.6854C114.869 27.8298 123.172 38.3334 127.603 50.611C128.333 52.6409 130.043 55.6008 133.533 55.3808C134.208 55.38 134.874 55.2229 135.478 54.9217C136.082 54.6206 136.608 54.1835 137.015 53.6449C137.422 53.1063 137.698 52.4807 137.823 51.8173C137.947 51.1539 137.917 50.4706 137.733 49.8211Z" stroke="white" stroke-width="1.9999" stroke-miterlimit="10" stroke-linecap="round" stroke-linejoin="round"/>
</svg>
